<svg xmlns="http://www.w3.org/2000/svg" width="100" height="100" viewBox="0 0 100 100">
  <defs>
    <pattern id="grid" width="20" height="20" patternUnits="userSpaceOnUse">
      <path d="M 20 0 L 0 0 0 20" fill="none" stroke="#0ea5e9" stroke-width="0.3" stroke-opacity="0.15"/>
    </pattern>
  </defs>
  <rect width="100" height="100" fill="url(#grid)"/>
  <circle cx="0" cy="0" r="1.5" fill="#0ea5e9" fill-opacity="0.2"/>
  <circle cx="20" cy="0" r="1.5" fill="#0ea5e9" fill-opacity="0.2"/>
  <circle cx="40" cy="0" r="1.5" fill="#0ea5e9" fill-opacity="0.2"/>
  <circle cx="60" cy="0" r="1.5" fill="#0ea5e9" fill-opacity="0.2"/>
  <circle cx="80" cy="0" r="1.5" fill="#0ea5e9" fill-opacity="0.2"/>
  <circle cx="100" cy="0" r="1.5" fill="#0ea5e9" fill-opacity="0.2"/>
  <circle cx="0" cy="20" r="1.5" fill="#0ea5e9" fill-opacity="0.2"/>
  <circle cx="20" cy="20" r="1.5" fill="#0ea5e9" fill-opacity="0.2"/>
  <circle cx="40" cy="20" r="1.5" fill="#0ea5e9" fill-opacity="0.2"/>
  <circle cx="60" cy="20" r="1.5" fill="#0ea5e9" fill-opacity="0.2"/>
  <circle cx="80" cy="20" r="1.5" fill="#0ea5e9" fill-opacity="0.2"/>
  <circle cx="100" cy="20" r="1.5" fill="#0ea5e9" fill-opacity="0.2"/>
  <circle cx="0" cy="40" r="1.5" fill="#0ea5e9" fill-opacity="0.2"/>
  <circle cx="20" cy="40" r="1.5" fill="#0ea5e9" fill-opacity="0.2"/>
  <circle cx="40" cy="40" r="1.5" fill="#6366f1" fill-opacity="0.25"/>
  <circle cx="60" cy="40" r="1.5" fill="#0ea5e9" fill-opacity="0.2"/>
  <circle cx="80" cy="40" r="1.5" fill="#0ea5e9" fill-opacity="0.2"/>
  <circle cx="100" cy="40" r="1.5" fill="#0ea5e9" fill-opacity="0.2"/>
  <circle cx="0" cy="60" r="1.5" fill="#0ea5e9" fill-opacity="0.2"/>
  <circle cx="20" cy="60" r="1.5" fill="#0ea5e9" fill-opacity="0.2"/>
  <circle cx="40" cy="60" r="1.5" fill="#0ea5e9" fill-opacity="0.2"/>
  <circle cx="60" cy="60" r="1.5" fill="#6366f1" fill-opacity="0.25"/>
  <circle cx="80" cy="60" r="1.5" fill="#0ea5e9" fill-opacity="0.2"/>
  <circle cx="100" cy="60" r="1.5" fill="#0ea5e9" fill-opacity="0.2"/>
  <circle cx="0" cy="80" r="1.5" fill="#0ea5e9" fill-opacity="0.2"/>
  <circle cx="20" cy="80" r="1.5" fill="#0ea5e9" fill-opacity="0.2"/>
  <circle cx="40" cy="80" r="1.5" fill="#0ea5e9" fill-opacity="0.2"/>
  <circle cx="60" cy="80" r="1.5" fill="#0ea5e9" fill-opacity="0.2"/>
  <circle cx="80" cy="80" r="1.5" fill="#6366f1" fill-opacity="0.25"/>
  <circle cx="100" cy="80" r="1.5" fill="#0ea5e9" fill-opacity="0.2"/>
  <circle cx="0" cy="100" r="1.5" fill="#0ea5e9" fill-opacity="0.2"/>
  <circle cx="20" cy="100" r="1.5" fill="#0ea5e9" fill-opacity="0.2"/>
  <circle cx="40" cy="100" r="1.5" fill="#0ea5e9" fill-opacity="0.2"/>
  <circle cx="60" cy="100" r="1.5" fill="#0ea5e9" fill-opacity="0.2"/>
  <circle cx="80" cy="100" r="1.5" fill="#0ea5e9" fill-opacity="0.2"/>
  <circle cx="100" cy="100" r="1.5" fill="#0ea5e9" fill-opacity="0.2"/>
</svg>
