<svg xmlns="http://www.w3.org/2000/svg" viewBox="0 0 1000 420" fill="none">
  <defs>
    <filter id="mapShadow">
      <feDropShadow dx="1" dy="1" stdDeviation="2" flood-color="#000" flood-opacity="0.3"/>
    </filter>
  </defs>

  <!-- ===== INDONESIA BARAT (ABU-ABU) ===== -->

  <!-- Sumatera -->
  <path d="M 60 180 L 75 160 L 95 150 L 120 145 L 145 140 L 165 135 L 180 130 L 195 128 L 210 132 L 220 140 L 225 155 L 220 170 L 210 182 L 200 195 L 190 210 L 185 225 L 188 240 L 195 252 L 200 265 L 198 278 L 190 288 L 178 295 L 165 298 L 150 295 L 138 285 L 128 272 L 120 258 L 115 243 L 112 228 L 108 213 L 100 200 L 88 192 L 72 188 Z" fill="#888" stroke="#666" stroke-width="0.8" filter="url(#mapShadow)"/>

  <!-- Jawa -->
  <path d="M 175 310 L 195 305 L 220 302 L 248 300 L 275 298 L 300 297 L 325 298 L 348 300 L 368 305 L 380 312 L 382 320 L 375 328 L 358 333 L 335 335 L 310 334 L 285 332 L 260 330 L 235 328 L 210 325 L 190 320 Z" fill="#888" stroke="#666" stroke-width="0.8" filter="url(#mapShadow)"/>

  <!-- Kalimantan -->
  <path d="M 310 140 L 335 125 L 365 115 L 395 110 L 425 112 L 450 118 L 468 130 L 478 148 L 480 168 L 475 188 L 465 205 L 452 218 L 438 228 L 422 235 L 405 238 L 388 235 L 372 228 L 358 218 L 345 205 L 335 190 L 325 175 L 315 160 Z" fill="#888" stroke="#666" stroke-width="0.8" filter="url(#mapShadow)"/>

  <!-- Bali kecil -->
  <path d="M 388 315 L 398 312 L 408 314 L 412 320 L 408 326 L 398 328 L 388 325 Z" fill="#888" stroke="#666" stroke-width="0.6"/>

  <!-- ===== INDONESIA TIMUR (MERAH) ===== -->

  <!-- Sulawesi -->
  <path d="M 530 155 L 545 140 L 558 132 L 568 135 L 572 148 L 568 162 L 558 172 L 548 178 L 542 190 L 545 205 L 552 218 L 555 232 L 550 244 L 540 250 L 528 248 L 520 238 L 518 224 L 522 210 L 528 198 L 530 185 L 525 172 Z" fill="#8B0000" stroke="#6B0000" stroke-width="0.8" filter="url(#mapShadow)"/>
  <path d="M 558 172 L 575 165 L 592 162 L 605 168 L 610 180 L 605 192 L 592 198 L 578 198 L 565 192 L 558 182 Z" fill="#8B0000" stroke="#6B0000" stroke-width="0.8"/>
  <path d="M 548 178 L 562 182 L 572 192 L 575 205 L 568 215 L 555 218 L 545 212 L 542 200 Z" fill="#8B0000" stroke="#6B0000" stroke-width="0.8"/>

  <!-- Maluku -->
  <path d="M 650 170 L 660 162 L 670 165 L 672 178 L 665 188 L 652 188 Z" fill="#cc2200" stroke="#aa1100" stroke-width="0.7"/>
  <path d="M 678 185 L 688 178 L 698 182 L 700 195 L 692 202 L 680 200 Z" fill="#cc2200" stroke="#aa1100" stroke-width="0.7"/>
  <path d="M 655 205 L 665 198 L 675 202 L 676 215 L 668 222 L 656 218 Z" fill="#cc2200" stroke="#aa1100" stroke-width="0.7"/>
  <path d="M 685 215 L 695 208 L 705 212 L 706 225 L 698 232 L 686 228 Z" fill="#cc2200" stroke="#aa1100" stroke-width="0.7"/>
  <path d="M 660 235 L 672 228 L 682 232 L 683 245 L 674 252 L 662 248 Z" fill="#cc2200" stroke="#aa1100" stroke-width="0.7"/>

  <!-- Nusa Tenggara -->
  <path d="M 415 325 L 430 320 L 445 322 L 450 330 L 445 338 L 430 340 L 416 336 Z" fill="#cc2200" stroke="#aa1100" stroke-width="0.7"/>
  <path d="M 455 322 L 472 318 L 488 320 L 492 330 L 486 338 L 470 340 L 456 335 Z" fill="#cc2200" stroke="#aa1100" stroke-width="0.7"/>
  <path d="M 495 320 L 512 316 L 528 318 L 532 328 L 526 336 L 510 338 L 496 333 Z" fill="#cc2200" stroke="#aa1100" stroke-width="0.7"/>
  <path d="M 535 318 L 550 314 L 562 316 L 565 326 L 558 334 L 542 335 L 536 328 Z" fill="#cc2200" stroke="#aa1100" stroke-width="0.7"/>

  <!-- Papua -->
  <path d="M 730 150 L 760 135 L 795 125 L 830 120 L 862 122 L 890 130 L 912 145 L 928 162 L 935 182 L 932 202 L 922 220 L 908 235 L 890 246 L 870 252 L 848 255 L 825 252 L 802 245 L 780 235 L 762 222 L 748 208 L 738 192 L 732 175 Z" fill="#8B0000" stroke="#6B0000" stroke-width="0.8" filter="url(#mapShadow)"/>
  <!-- Papua bawah -->
  <path d="M 800 255 L 825 252 L 848 255 L 865 265 L 872 280 L 865 295 L 848 302 L 828 300 L 810 292 L 800 278 Z" fill="#8B0000" stroke="#6B0000" stroke-width="0.8"/>

  <!-- Halmahera -->
  <path d="M 700 130 L 712 120 L 722 125 L 725 140 L 718 152 L 705 155 L 698 145 Z" fill="#cc2200" stroke="#aa1100" stroke-width="0.7"/>
  <path d="M 718 152 L 728 145 L 738 150 L 740 163 L 732 172 L 720 170 Z" fill="#cc2200" stroke="#aa1100" stroke-width="0.7"/>

  <!-- Teks label -->
  <text x="500" y="215" text-anchor="middle" font-family="Georgia, serif" font-style="italic" font-weight="bold" font-size="22" fill="white" opacity="0.95" filter="url(#mapShadow)">Support Pemasangan Indonesia Timur</text>
</svg>
