<svg xmlns="http://www.w3.org/2000/svg" viewBox="0 0 500 300" fill="none">
  <defs>
    <linearGradient id="bg2" x1="0" y1="0" x2="1" y2="1">
      <stop offset="0%" stop-color="#0369a1"/>
      <stop offset="100%" stop-color="#0ea5e9"/>
    </linearGradient>
    <linearGradient id="glow2" x1="0" y1="0" x2="1" y2="1">
      <stop offset="0%" stop-color="#38bdf8"/>
      <stop offset="100%" stop-color="#818cf8"/>
    </linearGradient>
  </defs>
  <rect width="500" height="300" fill="url(#bg2)"/>

  <!-- Glow circles -->
  <circle cx="350" cy="150" r="160" fill="rgba(255,255,255,0.05)"/>
  <circle cx="420" cy="80" r="80" fill="rgba(255,255,255,0.06)"/>

  <!-- Brand badge -->
  <rect x="20" y="20" width="80" height="28" rx="6" fill="rgba(255,255,255,0.15)" stroke="rgba(255,255,255,0.3)" stroke-width="1"/>
  <text x="60" y="39" text-anchor="middle" font-family="Inter,sans-serif" font-weight="800" font-size="13" fill="white" letter-spacing="1">alhua</text>

  <!-- AI Robot face (simplified) -->
  <ellipse cx="390" cy="180" rx="70" ry="90" fill="rgba(255,255,255,0.08)"/>
  <!-- Head -->
  <ellipse cx="390" cy="140" rx="45" ry="55" fill="rgba(255,255,255,0.12)" stroke="rgba(255,255,255,0.2)" stroke-width="1"/>
  <!-- Eyes -->
  <ellipse cx="375" cy="130" rx="8" ry="10" fill="url(#glow2)" opacity="0.9"/>
  <ellipse cx="405" cy="130" rx="8" ry="10" fill="url(#glow2)" opacity="0.9"/>
  <circle cx="375" cy="130" r="4" fill="white" opacity="0.9"/>
  <circle cx="405" cy="130" r="4" fill="white" opacity="0.9"/>
  <!-- Mouth line -->
  <path d="M375 158 Q390 165 405 158" stroke="rgba(255,255,255,0.5)" stroke-width="1.5" fill="none" stroke-linecap="round"/>
  <!-- Neck -->
  <rect x="382" y="192" width="16" height="20" rx="4" fill="rgba(255,255,255,0.1)"/>

  <!-- AI Icons floating -->
  <circle cx="310" cy="80" r="22" fill="rgba(255,255,255,0.12)" stroke="rgba(255,255,255,0.25)" stroke-width="1"/>
  <text x="310" y="87" text-anchor="middle" font-size="16" fill="white">👁</text>

  <circle cx="460" cy="110" r="22" fill="rgba(255,255,255,0.12)" stroke="rgba(255,255,255,0.25)" stroke-width="1"/>
  <text x="460" y="117" text-anchor="middle" font-size="16" fill="white">🤖</text>

  <circle cx="460" cy="200" r="22" fill="rgba(255,255,255,0.12)" stroke="rgba(255,255,255,0.25)" stroke-width="1"/>
  <text x="460" y="207" text-anchor="middle" font-size="16" fill="white">📡</text>

  <!-- Text content -->
  <text x="20" y="80" font-family="Inter,sans-serif" font-weight="900" font-size="22" fill="white" letter-spacing="-0.5">MANFAAT</text>
  <text x="20" y="106" font-family="Inter,sans-serif" font-weight="900" font-size="22" fill="white" letter-spacing="-0.5">TEKNOLOGI AI</text>
  <text x="20" y="132" font-family="Inter,sans-serif" font-weight="900" font-size="22" fill="white" letter-spacing="-0.5">PADA CCTV</text>

  <text x="20" y="158" font-family="Inter,sans-serif" font-size="10" fill="rgba(255,255,255,0.75)" letter-spacing="0.2">Produk &amp; Solusi Keamanan</text>
  <text x="20" y="172" font-family="Inter,sans-serif" font-size="10" fill="rgba(255,255,255,0.75)">berbasis AI &amp; Algoritma</text>
  <text x="20" y="186" font-family="Inter,sans-serif" font-size="10" fill="rgba(255,255,255,0.75)">Deep Learning</text>
</svg>
